<?xml version="1.0" encoding="utf-8"?>
<!-- Generator: Adobe Illustrator 15.0.0, SVG Export Plug-In . SVG Version: 6.00 Build 0)  -->
<!DOCTYPE svg PUBLIC "-//W3C//DTD SVG 1.1//EN" "http://www.w3.org/Graphics/SVG/1.1/DTD/svg11.dtd">
<svg version="1.1" id="Layer_1" xmlns="http://www.w3.org/2000/svg" xmlns:xlink="http://www.w3.org/1999/xlink" x="0px" y="0px"
	 width="240.5px" height="240.5px" viewBox="0 0 240.5 240.5" enable-background="new 0 0 240.5 240.5" xml:space="preserve">
<polyline fill="#EEEEEE" points="0,0 240.5,0 240.5,240.5 0,240.5 "/>
<path fill="#D3D3D3" d="M182.353,132.508c-15.269-14.424-33.033-18.091-42.715-20.039c1.441-1.053,3.449-2.19,4.834-3.427
	c9.07-8.222,14.862-17.542,15.67-31.761c0.613-10.789-5.701-40.392-41.011-40.149v-0.001c-0.008,0-0.016,0-0.023,0s-0.016,0-0.023,0
	v0.001c-35.309-0.243-41.624,29.36-41.011,40.149c0.808,14.219,6.6,23.539,15.67,31.761c1.385,1.237,3.393,2.375,4.834,3.427
	c-9.682,1.948-27.446,5.615-42.715,20.039c-9.115,8.611-19.947,29.806-8.393,51.019c4.661,8.558,13.686,15.224,27.994,15.213
	c7.088,0.204,38.664-0.172,43.644-0.231c4.979,0.06,36.556,0.436,43.644,0.231c14.309,0.011,23.333-6.655,27.994-15.213
	C202.3,162.313,191.468,141.119,182.353,132.508z M87.131,78.25c-0.499-14.701,7.788-32.277,31.977-32.379
	c24.188,0.103,32.476,17.679,31.977,32.379c-0.5,14.743-15.236,29.486-31.977,33.369C102.367,107.736,87.631,92.993,87.131,78.25z
	 M183.751,176.084c-7.334,15.666-29.334,13.333-29.334,13.333l-35.31,0.116l-35.31-0.116c0,0-22,2.333-29.334-13.333
	c-4.662-9.958-3.453-22.867,7-35.667c12.185-14.921,41.686-21.569,57.62-21.314l0,0c0.008,0,0.016,0,0.023,0s0.016,0,0.023,0l0,0
	c15.935-0.255,45.436,6.394,57.62,21.314C187.204,153.217,188.413,166.126,183.751,176.084z"/>
<path fill="#E2E2E2" d="M183.353,133.508c-15.269-14.424-33.033-18.091-42.715-20.039c1.441-1.053,3.449-2.19,4.834-3.427
	c9.07-8.222,14.862-17.542,15.67-31.761c0.613-10.789-5.701-40.392-41.011-40.149v-0.001c-0.008,0-0.016,0-0.023,0s-0.016,0-0.023,0
	v0.001c-35.309-0.243-41.624,29.36-41.011,40.149c0.808,14.219,6.6,23.539,15.67,31.761c1.385,1.237,3.393,2.375,4.834,3.427
	c-9.682,1.948-27.446,5.615-42.715,20.039c-9.115,8.611-19.947,29.806-8.393,51.019c4.661,8.558,13.686,15.224,27.994,15.213
	c7.088,0.204,38.664-0.172,43.644-0.231c4.979,0.06,36.556,0.436,43.644,0.231c14.309,0.011,23.333-6.655,27.994-15.213
	C203.3,163.313,192.468,142.119,183.353,133.508z M88.131,79.25c-0.499-14.701,7.788-32.277,31.977-32.379
	c24.188,0.103,32.476,17.679,31.977,32.379c-0.5,14.743-15.236,29.486-31.977,33.369C103.367,108.736,88.631,93.993,88.131,79.25z
	 M184.751,177.084c-7.334,15.666-29.334,13.333-29.334,13.333l-35.31,0.116l-35.31-0.116c0,0-22,2.333-29.334-13.333
	c-4.662-9.958-3.453-22.867,7-35.667c12.185-14.921,41.686-21.569,57.62-21.314l0,0c0.008,0,0.016,0,0.023,0s0.016,0,0.023,0l0,0
	c15.935-0.255,45.436,6.394,57.62,21.314C188.204,154.217,189.413,167.126,184.751,177.084z"/>
</svg>
