<?xml version="1.0" encoding="utf-8"?>
<!-- Generator: Adobe Illustrator 15.0.0, SVG Export Plug-In . SVG Version: 6.00 Build 0)  -->
<!DOCTYPE svg PUBLIC "-//W3C//DTD SVG 1.1//EN" "http://www.w3.org/Graphics/SVG/1.1/DTD/svg11.dtd">
<svg version="1.1" id="Layer_1" xmlns="http://www.w3.org/2000/svg" xmlns:xlink="http://www.w3.org/1999/xlink" x="0px" y="0px"
	 width="240.5px" height="240.5px" viewBox="0 0 240.5 240.5" enable-background="new 0 0 240.5 240.5" xml:space="preserve">
<rect fill="#EEEEEE" width="240.5" height="240.5"/>
<g>
	<path fill="#D3D3D3" d="M202.4,109.261c2.249-8.167,2.887-16.65,1.814-23.867c-1.384-9.287-5.573-16.47-12.123-20.791
		c-5.687-3.747-13.039-5.444-21.268-4.903c-7.481,0.489-15.178,2.837-21.666,6.622c-7.87,4.6-14.881,11.837-19.76,17.49l0,0
		c-1.748,2.103-3.569,1.881-4.824,0c-5.366-8.055-14.135-20.126-23.188-28.786c-8.252-7.894-17.245-13.12-26.013-15.095
		c-4.883-1.104-9.701-1.214-14.32-0.34c-4.894,0.939-9.565,2.983-13.883,6.096c-4.297,3.09-7.52,7.258-9.58,12.379
		c-1.81,4.513-2.714,9.781-2.679,15.644c0.071,12.703,4.401,25.339,8.021,33.703c6.431,14.861,19.021,30.361,24.715,37.16
		c0.762,0.904,0.955,1.747,0.575,2.714l0,0c-2.348,5.912-4.105,12.734-3.64,18.723c0.731,9.413,4.88,17.886,12.449,24.055
		c6.618,5.405,14.639,7.955,22.89,7.955c1.211,0,2.444-0.056,3.668-0.186c7.662-0.75,15.748-4.427,22.881-9.512
		c7.12,5.085,15.209,8.762,22.875,9.512c1.23,0.13,2.454,0.186,3.668,0.186c8.255,0,16.261-2.55,22.893-7.955
		c7.571-6.169,11.718-14.642,12.444-24.055c0.473-6.11-1.091-12.949-3.541-18.966v-0.008c-0.39-0.982-0.336-1.901,0.154-2.635
		C189.246,137.989,198.499,123.451,202.4,109.261z M115.014,145.678c2.99,2.698,7.135,4.298,11.458,4.298
		c4.319,0,8.464-1.6,11.45-4.298c3.2-2.89,4.835-7.324,4.835-11.824c0-5.058-1.91-9.361-5.677-12.775
		c-0.575-0.514-1.409-0.986-2.008-1.424c3.512-1.364,7.832-1.948,13.617-1.092c2.949,0.439,6.119,2.172,8.497,4.622
		c1.892,1.969,4.151,5.286,4.151,9.964c0,7.59-2.993,14.833-9.15,22.147c-5.606,6.678-23.778,21.063-25.716,22.65
		c-1.934-1.587-20.11-15.973-25.726-22.65c-6.152-7.314-9.147-14.558-9.147-22.147c0-4.678,2.259-7.995,4.15-9.964
		c2.377-2.45,5.554-4.183,8.494-4.622c5.795-0.856,10.115-0.272,13.625,1.092c-0.598,0.438-1.439,0.91-2.011,1.424
		c-3.771,3.414-5.681,7.718-5.681,12.775C110.176,138.354,111.819,142.788,115.014,145.678z M118.647,133.854
		c0-5.018,3.398-8.19,7.824-10.304c4.418,2.113,7.823,5.286,7.823,10.304c0,2.1-0.751,3.892-2.17,5.171
		c-1.425,1.285-3.437,1.993-5.653,1.993c-2.224,0-4.234-0.708-5.662-1.993C119.386,137.745,118.647,135.953,118.647,133.854z
		 M178.221,139.811c-1.603,2.431-2.719,5.254-0.37,11.33l0.009,0.027v0.004h0.004c1.658,4.495,2.029,9.434,1.682,13.819
		c-0.552,7.152-3.776,13.169-9.598,17.901c-5.918,4.814-12.69,6.898-20.137,6.16c-5.504-0.547-11.598-2.615-16.937-6.034
		c1.432-1.146,19.616-14.915,25.801-22.275c7.486-8.905,11.129-17.934,11.129-27.595c0-5.854-1.83-11.966-6.036-16.319
		c-3.68-3.822-8.55-6.418-13.349-7.122c-10.98-1.631-18.266,1.183-23.947,4.566c-5.683-3.383-12.971-6.198-23.942-4.566
		c-4.805,0.704-9.68,3.3-13.361,7.122c-4.203,4.353-6.036,10.464-6.036,16.319c0,9.661,3.648,18.689,11.129,27.595
		c6.194,7.36,24.375,21.13,25.801,22.275c-5.338,3.419-11.433,5.487-16.936,6.034c-0.974,0.095-1.944,0.141-2.892,0.141
		c-6.32-0.006-12.11-2.111-17.249-6.301c-5.817-4.732-9.042-10.749-9.593-17.901c-0.387-4.983,0.254-10.634,2.407-15.621l0,0
		c1.168-3.177,1.038-6.1-1.655-9.367c-5.099-6.05-17.228-21.731-23.383-35.978c-4.672-10.791-6.906-20.962-6.959-29.751
		c-0.06-9.765,2.873-16.849,8.709-21.052c6.451-4.641,13.636-6.106,21.351-4.364c7.255,1.639,14.499,5.498,21.627,12.319
		c9.441,9.034,18.875,21.972,24.264,29.666c3.354,4.78,9.774,5.068,14.183-0.033l0,0c4.747-5.314,11.212-12.007,18.918-16.51
		c5.365-3.135,11.726-5.078,17.916-5.487c6.271-0.403,11.842,1.085,15.894,3.756c10.305,6.796,10.827,22.403,7.521,34.432
		C190.631,119.925,182.198,133.832,178.221,139.811L178.221,139.811z"/>
</g>
<g>
	<path fill="#E2E2E2" d="M203.4,110.261c2.249-8.167,2.887-16.65,1.814-23.867c-1.384-9.287-5.573-16.47-12.123-20.791
		c-5.687-3.747-13.039-5.444-21.268-4.903c-7.481,0.489-15.178,2.837-21.666,6.622c-7.87,4.6-14.881,11.837-19.76,17.49l0,0
		c-1.748,2.103-3.569,1.881-4.824,0c-5.366-8.055-14.135-20.126-23.188-28.786c-8.252-7.894-17.245-13.12-26.013-15.095
		c-4.883-1.104-9.701-1.214-14.32-0.34c-4.894,0.939-9.565,2.983-13.883,6.096c-4.297,3.09-7.52,7.258-9.58,12.379
		c-1.81,4.513-2.714,9.781-2.679,15.644c0.071,12.703,4.401,25.339,8.021,33.703c6.431,14.861,19.021,30.361,24.715,37.16
		c0.762,0.904,0.955,1.747,0.575,2.714l0,0c-2.348,5.912-4.105,12.734-3.64,18.723c0.731,9.413,4.88,17.886,12.449,24.055
		c6.618,5.405,14.639,7.955,22.89,7.955c1.211,0,2.444-0.056,3.668-0.186c7.662-0.75,15.748-4.427,22.881-9.512
		c7.12,5.085,15.209,8.762,22.875,9.512c1.23,0.13,2.454,0.186,3.668,0.186c8.255,0,16.261-2.55,22.893-7.955
		c7.571-6.169,11.718-14.642,12.444-24.055c0.473-6.11-1.091-12.949-3.541-18.966v-0.008c-0.39-0.982-0.336-1.901,0.154-2.635
		C190.246,138.989,199.499,124.451,203.4,110.261z M116.014,146.678c2.99,2.698,7.135,4.298,11.458,4.298
		c4.319,0,8.464-1.6,11.45-4.298c3.2-2.89,4.835-7.324,4.835-11.824c0-5.058-1.91-9.361-5.677-12.775
		c-0.575-0.514-1.409-0.986-2.008-1.424c3.512-1.364,7.832-1.948,13.617-1.092c2.949,0.439,6.119,2.172,8.497,4.622
		c1.892,1.969,4.151,5.286,4.151,9.964c0,7.59-2.993,14.833-9.15,22.147c-5.606,6.678-23.778,21.063-25.716,22.65
		c-1.934-1.587-20.11-15.973-25.726-22.65c-6.152-7.314-9.147-14.558-9.147-22.147c0-4.678,2.259-7.995,4.15-9.964
		c2.377-2.45,5.554-4.183,8.494-4.622c5.795-0.856,10.115-0.272,13.625,1.092c-0.598,0.438-1.439,0.91-2.011,1.424
		c-3.771,3.414-5.681,7.718-5.681,12.775C111.176,139.354,112.819,143.788,116.014,146.678z M119.647,134.854
		c0-5.018,3.398-8.19,7.824-10.304c4.418,2.113,7.823,5.286,7.823,10.304c0,2.1-0.751,3.892-2.17,5.171
		c-1.425,1.285-3.437,1.993-5.653,1.993c-2.224,0-4.234-0.708-5.662-1.993C120.386,138.745,119.647,136.953,119.647,134.854z
		 M179.221,140.811c-1.603,2.431-2.719,5.254-0.37,11.33l0.009,0.027v0.004h0.004c1.658,4.495,2.029,9.434,1.682,13.819
		c-0.552,7.152-3.776,13.169-9.598,17.901c-5.918,4.814-12.69,6.898-20.137,6.16c-5.504-0.547-11.598-2.615-16.937-6.034
		c1.432-1.146,19.616-14.915,25.801-22.275c7.486-8.905,11.129-17.934,11.129-27.595c0-5.854-1.83-11.966-6.036-16.319
		c-3.68-3.822-8.55-6.418-13.349-7.122c-10.98-1.631-18.266,1.183-23.947,4.566c-5.683-3.383-12.971-6.198-23.942-4.566
		c-4.805,0.704-9.68,3.3-13.361,7.122c-4.203,4.353-6.036,10.464-6.036,16.319c0,9.661,3.648,18.689,11.129,27.595
		c6.194,7.36,24.375,21.13,25.801,22.275c-5.338,3.419-11.433,5.487-16.936,6.034c-0.974,0.095-1.944,0.141-2.892,0.141
		c-6.32-0.006-12.11-2.111-17.249-6.301c-5.817-4.732-9.042-10.749-9.593-17.901c-0.387-4.983,0.254-10.634,2.407-15.621l0,0
		c1.168-3.177,1.038-6.1-1.655-9.367c-5.099-6.05-17.228-21.731-23.383-35.978c-4.672-10.791-6.906-20.962-6.959-29.751
		c-0.06-9.765,2.873-16.849,8.709-21.052c6.451-4.641,13.636-6.106,21.351-4.364c7.255,1.639,14.499,5.498,21.627,12.319
		c9.441,9.034,18.875,21.972,24.264,29.666c3.354,4.78,9.774,5.068,14.183-0.033l0,0c4.747-5.314,11.212-12.007,18.918-16.51
		c5.365-3.135,11.726-5.078,17.916-5.487c6.271-0.403,11.842,1.085,15.894,3.756c10.305,6.796,10.827,22.403,7.521,34.432
		C191.631,120.925,183.198,134.832,179.221,140.811L179.221,140.811z"/>
</g>
</svg>
